<?xml version="1.0" encoding="utf-8"?>
<!-- Uploaded to: SVG Repo, www.svgrepo.com, Generator: SVG Repo Mixer Tools -->
<svg width="800px" height="800px" viewBox="-27.25 0 306.081 306.081" xmlns="http://www.w3.org/2000/svg"><defs><style>.a{fill:#ffffff;}.b{fill:#7a7473;}.c{fill:#211715;}.d{fill:#a0a0a0;}.e{fill:#d9d9d9;}</style></defs><path class="a" d="M153.979,48.744a4.717,4.717,0,0,1,3.3-1.144,4.26,4.26,0,0,1,3.8,2.007c1.288,2.133,1.234,6.058.365,8.491a12.351,12.351,0,0,1-3.99,6,4.98,4.98,0,0,1-3.85,1.307c-.48,1.536-1.173,2.951-1.391,3.612-.97,2.635-6.272,11.781-13.02,15.546a38.729,38.729,0,0,0,.566,5.157c.335,1.91.23,3.618,2.886,4.576.175.064,7.707,3.647,7.976,3.758,0,0-.488,20.21-26.044,20.21s-26-19.8-26-19.8c.511-.174,8.911-4.1,9.086-4.167,2.656-.958,2.551-2.666,2.886-4.576a34.952,34.952,0,0,0,.572-5.257,27.315,27.315,0,0,1-7.738-6.657A34.673,34.673,0,0,1,96.8,65.371a5.138,5.138,0,0,1-4.009-1.034A13.015,13.015,0,0,1,88.745,58.1c-.866-2.43-.921-6.357.37-8.488a4.259,4.259,0,0,1,3.8-2.009,4.692,4.692,0,0,1,3.293,1.148S86.35,18.713,125.239,18.713C161.017,18.713,153.979,48.744,153.979,48.744Z"/><path class="b" d="M119.482,2.41a33.555,33.555,0,0,0-15.168,6.157A34.427,34.427,0,0,0,89.885,35.582,38.071,38.071,0,0,0,91.549,47.8a5.833,5.833,0,0,1,1.364-.2,4.692,4.692,0,0,1,3.293,1.148l4.488-4.7c3.5-3.9,9.673-9.774,14.006-12.047.508-.266,1.161.094,1.367.943a5.573,5.573,0,0,1,.133,2.033,1.059,1.059,0,0,0,1.509,1.137c3.093-1.719,8.6-5.177,12.513-6.824l.05-.021a15.881,15.881,0,0,1,6.389,1.074,14.787,14.787,0,0,1,4.694,3.016c3.518,3.027,6.891,7.18,8.385,10.938l4.239,4.448a4.717,4.717,0,0,1,3.3-1.144,5.766,5.766,0,0,1,1.45.221,37.747,37.747,0,0,0,1.623-12.239c-.5-11.589-5.32-19.007-10.965-24.046l-3.124-2.789-1.688-1.09a34.685,34.685,0,0,0-19.456-5.649A38.929,38.929,0,0,0,119.482,2.41Z"/><path class="c" d="M97.62,47.333A7.133,7.133,0,0,0,90.138,46.2a6.474,6.474,0,0,0-3.6,4.465,15.494,15.494,0,0,0,2.508,12.574C90.8,65.684,93.458,67.8,96.658,67.4a2.063,2.063,0,0,0,2-2,2.012,2.012,0,0,0-2-2c-2.168.273-3.682-1.3-4.718-3.042a12.216,12.216,0,0,1-1.754-4.9,7.813,7.813,0,0,1,.856-5.148c-.292.427-.032.054.063-.039.077-.079.158-.154.241-.226-.15.111-.165.124-.045.042a2.076,2.076,0,0,1,1.03-.43,2.932,2.932,0,0,1,2.461.5,2.053,2.053,0,0,0,2.828,0,2.016,2.016,0,0,0,0-2.828Z"/><path class="c" d="M155.394,50.158a2.95,2.95,0,0,1,2.462-.494,2.139,2.139,0,0,1,.953.376c.406.241-.125-.153.159.124.112.108.212.227.321.338-.345-.35-.044-.068.028.067.039.072.244.433.228.4a7.385,7.385,0,0,1,.388,1.362,11.224,11.224,0,0,1-1.669,7.916c-1,1.611-2.653,3.361-4.668,3.163a2.014,2.014,0,0,0-2,2,2.044,2.044,0,0,0,2,2c2.62.258,5.013-1.337,6.686-3.225a16.07,16.07,0,0,0,3.158-5.766c1.217-3.744,1.078-9.481-2.612-11.831a7.129,7.129,0,0,0-8.263.744,2.016,2.016,0,0,0,0,2.828,2.042,2.042,0,0,0,2.829,0Z"/><path class="c" d="M152.088,63.1a20.787,20.787,0,0,1-1.493,4.583c-.152.366-.29.738-.435,1.107.23-.585-.18.368-.27.55a39.477,39.477,0,0,1-3.307,5.407c-2.8,3.91-6.614,8.143-11.482,9.286-2.5.588-1.444,4.445,1.064,3.857,5.752-1.351,10.188-6.1,13.556-10.688a39.993,39.993,0,0,0,3.585-5.769,26.658,26.658,0,0,0,2.639-7.27,2.061,2.061,0,0,0-1.4-2.46,2.016,2.016,0,0,0-2.46,1.4Z"/><path class="c" d="M94.205,63.28c2.4,11.178,10.764,23.434,22.816,25.255a2.066,2.066,0,0,0,2.46-1.4,2.014,2.014,0,0,0-1.4-2.46C107.317,83.051,100.2,72.17,98.062,62.217c-.541-2.515-4.4-1.451-3.857,1.063Z"/><path class="c" d="M145.581,5.93a38.651,38.651,0,0,0-35.76-2.821A37.065,37.065,0,0,0,89.835,24.814a38.662,38.662,0,0,0-.59,22.173c.64,2.492,4.5,1.436,3.857-1.063-2.724-10.6-.692-22.067,6.6-30.42a34.039,34.039,0,0,1,43.863-6.12c2.175,1.39,4.183-2.07,2.019-3.454Z"/><path class="c" d="M161.007,46.987a39.792,39.792,0,0,0-.6-22.374A34.254,34.254,0,0,0,150.8,10.122c-1.909-1.718-4.747,1.1-2.829,2.828a30.189,30.189,0,0,1,8.583,12.726,35.8,35.8,0,0,1,.6,20.248c-.616,2.5,3.241,3.565,3.857,1.063Z"/><path class="c" d="M135.652,32.068A19.936,19.936,0,0,1,142.4,37.1a31.333,31.333,0,0,1,3.114,3.723c.489.7.95,1.415,1.371,2.156.182.321.357.647.522.978.1.193.186.388.278.582a1.374,1.374,0,0,1,.128.292,2.064,2.064,0,0,0,2.46,1.4,2.013,2.013,0,0,0,1.4-2.46,30.112,30.112,0,0,0-6.272-9.319,24.386,24.386,0,0,0-7.725-5.831,2.066,2.066,0,0,0-2.737.717,2.015,2.015,0,0,0,.718,2.736Z"/><path class="c" d="M102.108,45.461a84.148,84.148,0,0,1,7.274-7.146,45.739,45.739,0,0,1,3.936-3.113,21.019,21.019,0,0,0,1.884-1.2q1-.437-1.064-.53a1.674,1.674,0,0,1,.089.483,6.629,6.629,0,0,0-.027,1.018,3.112,3.112,0,0,0,3.76,3.171,18.21,18.21,0,0,0,4.086-2.228,84.507,84.507,0,0,1,9.185-4.9,2.013,2.013,0,0,0,.718-2.737,2.053,2.053,0,0,0-2.736-.717,87.187,87.187,0,0,0-9.5,5.085c-.672.393-1.345.787-2.02,1.175a3.637,3.637,0,0,0-.76.432q1.33,1.521,1.29.424a5.125,5.125,0,0,0,.006-.632c-.079-1.849-.916-4.039-3.075-4.124-1.481-.058-2.988,1.209-4.138,2.023-1.446,1.022-2.831,2.135-4.173,3.289a83.479,83.479,0,0,0-7.566,7.4c-1.72,1.907,1.1,4.745,2.828,2.828Z"/><path class="c" d="M109.069,85.579a31.7,31.7,0,0,1-.428,3.488,21.038,21.038,0,0,1-.4,2.208c-.054.191-.286.574-.025.145a3.332,3.332,0,0,0-.227.407c-.089.217.262-.209.062-.076a1.3,1.3,0,0,0-.148.157c-.071.071-.146.137-.223.2.22-.185.107-.082-.065.014-.069.039-.553.3-.29.173-.214.1-.5.2-.695.284l-.229.1c-2.105.957-4.2,1.945-6.3,2.911q-.813.375-1.629.745l-.582.26c-.423.19.526-.2.145-.063a2,2,0,0,0,1.064,3.858c.883-.316,1.739-.757,2.59-1.148q1.938-.888,3.87-1.787l2.856-1.323c.076-.035.156-.064.23-.1.025-.013-.726.294-.36.156.177-.066.351-.142.526-.216a6.276,6.276,0,0,0,.893-.441,5.429,5.429,0,0,0,2.217-2.694,11.755,11.755,0,0,0,.522-2.438c.264-1.6.507-3.2.617-4.823a2.01,2.01,0,0,0-2-2,2.049,2.049,0,0,0-2,2Z"/><path class="c" d="M137.2,84.876a50.315,50.315,0,0,0,.868,6.905,5.775,5.775,0,0,0,3.834,4.371c.609.242-.556-.267-.121-.056.14.068.282.131.423.2q.666.312,1.331.627l3.6,1.7c.82.388,1.632.8,2.466,1.16a2.069,2.069,0,0,0,2.737-.718,2.014,2.014,0,0,0-.718-2.736c-1.769-.754-3.49-1.645-5.228-2.467-.844-.4-1.685-.807-2.534-1.194l-.2-.091c-.228-.1-.47-.18-.7-.284.244.113-.317-.192-.382-.23-.314-.18.18.177-.167-.134-.055-.05-.1-.11-.155-.16.05.046.222.362.052.068a3.772,3.772,0,0,0-.2-.356c.206.284.094.269.044.1-.027-.087-.059-.172-.085-.259a21.329,21.329,0,0,1-.452-2.515,34.476,34.476,0,0,1-.416-3.935,2,2,0,0,0-4,0Z"/><path class="a" d="M82.759,103.359c5.837-2.9,11.894-5.495,17.886-8.13l.586.4c5.347,3.687,13.667,7.751,23.251,7.776,8.736.022,19.126-3.8,23.4-7.411l.728-.616c7.345,3.227,14.777,6.405,21.777,10.164,15.452,8.3,17.242,29.172,21.114,44.416,1.805,7.109,2.069,9.03,3.01,12.04,3.2,11.367,12.039,28.218,17.683,36.62l1.14,1.833q-.592-.014-1.187-.022c-3.095-.334-5.686-.857-7.274.335-2.279.9-5.414,4.159-6.94,6.187l-.441.586c-.914,1.383-1.737,3.076-1.145,4.848C193.312,211,190,209.453,190,209.453c-5.778-6-16.642-21.8-22.278-31.811l-.218-.388c.128,6.846.207,12.11.184,13.681-.164,11.335.145,10.768.978,26.518l.07,1.325c-3.985,1.469-16.109,1.932-22.522,2.294-16.5.931-58.8.576-63.465.133a1.323,1.323,0,0,1-.972-1.431c-.073-2.5.513-8.855.334-17.766-.132-6.564-.217-14.152-.284-22.008-4.525,7.92-10.06,17.225-15.625,25.042-1.628,2.289-3.26,4.449-4.869,6.411l-6.935,4.3.453-1.356c.592-1.772-.23-3.466-1.145-4.848l-.441-.587c-1.526-2.027-4.661-5.288-6.94-6.187-1.588-1.191-4.179-.669-7.274-.334-.952.014-1.907.032-2.843.082.813-1.334,1.455-2.395,1.455-2.395C43.929,190.847,51.193,173.369,54.4,162c.654-3.01,1.2-4.931,3.01-12.04,3.871-15.244,5.661-36.117,21.114-44.416Q80.614,104.42,82.759,103.359Z"/><path class="a" d="M141.3,275.507q-.648-.379-1.326-.777c-.943-.552-1.829-1.132-2.682-1.691-.148-4.734-.294-9.556-.391-12.8-2.351-1.187-4.331-2.806-7.176-4.4-5.68-3.2-9.493.358-14.361,3.472-3.5,2.229-5.1,3.116-8.358,5.171q3.256.327,6.447.66c.013,6.111-.725,22.876-.976,29,1.363.067,2.3.121,2.3.121,4.955.285,13.37.587,17.891,2.049l17.4,5.627c3.855,1.247,9.761,3.938,13.267.381a4.562,4.562,0,0,0,1.606-2.81c.278-8.5-7.1-14.475-14.311-18.594C147.576,279.165,144.729,277.516,141.3,275.507Z"/><path class="d" d="M105.791,221.639c-11.413-.057-20.967-.237-23.047-.434a1.067,1.067,0,0,1-.314-.092l-.213.062C63.7,226.58,46.9,233.746,28.79,240.381a65.749,65.749,0,0,0-15.554,8.3c-6.01,4.265-10.192,10.442-11,17.767-1.037,9.344,2.1,18.286,9.643,22.122,4.565,2.322,10.42,3.64,16.32,4.332,28.472,3.341,62.705,3.735,84.2,3.308.062-2.3,1.07-23.942,1.055-31.074q-3.187-.333-6.447-.661c3.254-2.054,4.854-2.941,8.358-5.17,4.868-3.114,8.681-6.67,14.361-3.472,2.844,1.6,4.825,3.214,7.175,4.4.242,8.044.782,25.766.925,27.843,3.349.093,55.757.935,80.583-.594,11.417-.7,24.718-1.1,29.523-11.475,3.72-8.034.7-19.725-5.643-26.373-4.059-4.251-10.8-8.726-19.477-11.756-16.076-5.616-38.831-13.157-55.029-18.809-4.7,1.239-15.606,1.663-21.571,2C137.064,221.588,119.989,221.709,105.791,221.639Z"/><path class="c" d="M166.741,220.826c17.211,6.009,34.528,11.709,51.756,17.669,8.093,2.8,16.216,6.154,22.27,12.448,5.238,5.446,8.143,14.264,6.238,21.7a13.669,13.669,0,0,1-5.622,8.062,25.8,25.8,0,0,1-9.834,3.55c-6.713,1.212-13.7,1.329-20.5,1.592-14.281.551-28.584.582-42.874.542-9.8-.028-19.6-.092-29.391-.286-.32-.006-.639-.012-.959-.021l2,2c-.624-9.358-.653-18.785-.933-28.158l-.108-3.635-2,2,24.935-1.511,39.7-2.406,9.051-.548c2.557-.155,2.575-4.156,0-4l-24.935,1.511-39.7,2.406-9.051.548a2.033,2.033,0,0,0-2,2c.262,8.924.525,17.848.837,26.77.059,1.674.093,3.352.2,5.023a2.047,2.047,0,0,0,2,2c8.831.241,17.674.252,26.507.293,14.816.068,29.644.055,44.454-.447,6.972-.235,14.025-.451,20.943-1.374,7.49-1,15.5-3.448,19.4-10.5,4.131-7.455,2.589-17.088-1.379-24.271-4.24-7.677-12.226-12.788-20.1-16.146-4.233-1.806-8.647-3.195-13-4.687q-6.716-2.3-13.441-4.578c-9.163-3.106-18.332-6.2-27.48-9.347q-2.967-1.022-5.929-2.055c-2.435-.851-3.482,3.012-1.063,3.857Z"/><path class="a" d="M158.1,286.092a45.882,45.882,0,0,0-7.469-5.184c-3.438-1.963-6.614-3.806-10.657-6.178-5.317-3.118-8.838-7.088-14.762-3.455-1.5.919-2.675,1.662-3.711,2.285l-8.42,5.62c-.218,5.864-.474,11.8-.6,14.945l2.3.13c4.955.285,13.37.587,17.891,2.049l17.4,5.627c3.855,1.247,9.761,3.938,13.267.381a4.562,4.562,0,0,0,1.606-2.81C165.118,294.055,162.152,289.643,158.1,286.092Z"/><path class="c" d="M122.509,275.287c2.729-1.65,5.588-4.223,8.977-3.175a17.327,17.327,0,0,1,4.171,2.245c1.624,1.057,3.259,2.075,4.932,3.053,3.213,1.88,6.456,3.711,9.667,5.593a38.176,38.176,0,0,1,7.93,5.913,15.888,15.888,0,0,1,4.552,7.875,11.033,11.033,0,0,1,.208,2.153,2.4,2.4,0,0,1-.9,1.823,4.494,4.494,0,0,1-3.518,1.315c-3.04-.056-6.017-1.461-8.869-2.384l-12.7-4.106c-1.912-.618-3.813-1.321-5.781-1.746a53.335,53.335,0,0,0-5.41-.821c-3.653-.4-7.326-.562-10.993-.77-2.572-.146-2.564,3.855,0,4,3.542.2,7.089.357,10.619.73a52.048,52.048,0,0,1,10.737,2.541c4.56,1.474,9.131,2.917,13.679,4.425,3.217,1.067,6.57,2.461,10.031,2.059,3.891-.452,7.276-3.55,7.088-7.618a17.583,17.583,0,0,0-3.852-9.934c-4.743-6.134-12-9.563-18.552-13.38-2.084-1.214-4.169-2.418-6.188-3.739a25.5,25.5,0,0,0-5.47-2.978c-4.725-1.648-8.511,1.133-12.381,3.472-2.2,1.33-.192,4.79,2.019,3.454Z"/><path class="c" d="M109.042,265.558c2-1.241,4.014-2.443,6-3.689,2.239-1.4,4.374-3.027,6.715-4.256a6.824,6.824,0,0,1,6.133-.472c2.6,1.128,4.834,3.058,7.291,4.449,2.244,1.27,4.262-2.184,2.019-3.454-2.671-1.512-5.083-3.538-7.929-4.726a10.273,10.273,0,0,0-8.067.069,49.58,49.58,0,0,0-7.255,4.352c-2.291,1.455-4.626,2.84-6.93,4.273-2.182,1.356-.176,4.818,2.018,3.454Z"/><path class="c" d="M79.328,133.453c.329,13.871.346,27.75.454,41.624.11,14.163.524,28.315.024,42.472a12.735,12.735,0,0,0,.037,3.061,3.323,3.323,0,0,0,3.15,2.615c1.082.093,2.173.11,3.258.143,4.176.127,8.354.176,12.531.219,11.53.116,23.065.12,34.6-.095,4.691-.087,9.378-.237,14.063-.488,6.256-.335,12.594-.507,18.781-1.566a18.119,18.119,0,0,0,3.042-.732,2.049,2.049,0,0,0,1.468-1.928c-.373-7.055-1.01-14.122-1.082-21.19-.045-4.455.041-8.907-.029-13.363-.208-13.13-.516-26.26-.833-39.389-.123-5.072-.228-10.146-.4-15.217-.089-2.567-4.089-2.579-4,0,.388,11.19.581,22.389.824,33.583.233,10.688.464,21.369.435,32.059-.022,7.848.675,15.685,1.089,23.517l1.469-1.929a29.52,29.52,0,0,1-6.9,1.23c-3.19.323-6.392.52-9.593.7-4.76.265-9.518.507-14.284.628-11.207.285-22.423.294-33.632.223-4.7-.029-9.4-.076-14.092-.174-1.558-.032-3.116-.068-4.673-.126-.519-.019-1.037-.04-1.555-.071a1.824,1.824,0,0,0-.508-.033c-.6.181,1.008.45.813.551a4.155,4.155,0,0,0-.006-.619c.008-2.479.189-4.959.268-7.436.123-3.8.109-7.6.039-11.407-.128-6.932-.2-13.865-.255-20.8-.119-13.955-.148-27.911-.4-41.864q-.038-2.1-.087-4.2c-.061-2.57-4.061-2.58-4,0Z"/><path class="c" d="M139.806,93.614c7.438,3.437,15.027,6.54,22.426,10.062,5.775,2.748,11.394,5.436,15.324,10.664,6.851,9.112,8.571,21.1,11.01,31.927.751,3.34,1.626,6.65,2.41,9.982.5,2.105.962,4.217,1.6,6.285.76,2.451,4.622,1.405,3.857-1.064-1.461-4.713-2.465-9.627-3.591-14.427-1.341-5.715-2.421-11.491-3.992-17.151a55.97,55.97,0,0,0-6.837-16.141,31.119,31.119,0,0,0-5.755-6.585,42.422,42.422,0,0,0-8.62-5.291c-8.453-4.233-17.238-7.751-25.816-11.715a2.059,2.059,0,0,0-2.737.718,2.016,2.016,0,0,0,.718,2.736Z"/><path class="c" d="M107.078,90.16c-7.581,3.5-15.319,6.659-22.853,10.265a60.273,60.273,0,0,0-9.786,5.331,30.53,30.53,0,0,0-6.259,6.186c-7.171,9.414-9.111,21.7-11.631,32.951-1.243,5.555-2.869,11.017-4.083,16.577-.547,2.509,3.308,3.581,3.857,1.064,1.035-4.741,2.4-9.4,3.52-14.124,1.311-5.541,2.361-11.143,3.842-16.643a54.592,54.592,0,0,1,6.393-15.6,27.73,27.73,0,0,1,5.27-6.072,39.744,39.744,0,0,1,8.354-4.979c8.323-4.14,16.959-7.607,25.395-11.5a2.016,2.016,0,0,0,.717-2.736,2.046,2.046,0,0,0-2.736-.718Z"/><path class="c" d="M146.465,94.584a28.046,28.046,0,0,1-8.953,4.492,41.356,41.356,0,0,1-12.441,2.328c-8.2.136-16.134-2.913-22.831-7.5-2.129-1.458-4.132,2.006-2.019,3.453a45.188,45.188,0,0,0,18.618,7.587,42.76,42.76,0,0,0,21.578-2.676,31.142,31.142,0,0,0,8.876-4.858c1.984-1.645-.86-4.461-2.828-2.828Z"/><path class="c" d="M62.742,212.867c8.03-9.83,14.53-20.879,20.815-31.872,1.28-2.238-2.175-4.255-3.454-2.018C74,189.659,67.718,200.485,59.914,210.038a2.059,2.059,0,0,0,0,2.829,2.014,2.014,0,0,0,2.828,0Z"/><path class="c" d="M52.466,161.47a157.347,157.347,0,0,1-7.095,19.55,112.233,112.233,0,0,1-9.44,18.1c-1.439,2.143,2.025,4.147,3.454,2.019a113.148,113.148,0,0,0,9.6-18.464,164.8,164.8,0,0,0,7.34-20.139c.7-2.481-3.155-3.54-3.857-1.064Z"/><path class="c" d="M165.99,178.651c3.413,6.044,7.225,11.872,11.193,17.564a120.966,120.966,0,0,0,11.4,14.652c1.783,1.863,4.609-.968,2.829-2.829a115.692,115.692,0,0,1-10.987-14.15c-3.888-5.595-7.627-11.321-10.978-17.256-1.266-2.241-4.723-.228-3.454,2.019Z"/><path class="c" d="M192.579,162.534a117.74,117.74,0,0,0,8.041,19.725,153.679,153.679,0,0,0,9.844,17.373c1.424,2.129,4.891.129,3.454-2.019a153.052,153.052,0,0,1-9.671-17.024,112.674,112.674,0,0,1-7.811-19.119c-.7-2.471-4.564-1.421-3.857,1.064Z"/><path class="e" d="M74.2,78.558A186.454,186.454,0,0,1,38.971,91.3c-2.5.6-1.442,4.46,1.063,3.857A191.68,191.68,0,0,0,76.215,82.011a2.016,2.016,0,0,0,.717-2.736,2.044,2.044,0,0,0-2.736-.717Z"/><path class="e" d="M172.959,79.138c15.077,7.093,31.452,9.93,48.037,9.983,2.574.009,2.578-3.991,0-4-15.846-.051-31.6-2.653-46.018-9.437-2.316-1.09-4.349,2.357-2.019,3.454Z"/><path class="e" d="M37.561,110.8c-4.777,2.343-9.616,4.565-14.54,6.583a2.066,2.066,0,0,0-1.4,2.46,2.013,2.013,0,0,0,2.461,1.4c5.244-2.149,10.406-4.491,15.495-6.986a2.019,2.019,0,0,0,.717-2.736,2.042,2.042,0,0,0-2.736-.718Z"/><path class="e" d="M78.453,85.922a227.126,227.126,0,0,1-30.919,19.734c-2.264,1.226-.247,4.681,2.019,3.454A233.289,233.289,0,0,0,81.282,88.751a2.012,2.012,0,0,0,0-2.829,2.054,2.054,0,0,0-2.829,0Z"/><path class="e" d="M218.184,108.733a185.739,185.739,0,0,0,24.971,4.826,2.01,2.01,0,0,0,2-2,2.05,2.05,0,0,0-2-2,178.187,178.187,0,0,1-23.908-4.683c-2.49-.663-3.552,3.194-1.063,3.857Z"/><path class="e" d="M166.91,86.217a189.924,189.924,0,0,0,42.3,19.86c2.454.8,3.5-3.062,1.064-3.857a185.551,185.551,0,0,1-41.342-19.457c-2.185-1.375-4.195,2.084-2.019,3.454Z"/><path class="c" d="M81.685,219.246C65.5,223.987,49.87,230.343,34.1,236.28c-3.825,1.44-7.705,2.756-11.406,4.5A68.584,68.584,0,0,0,12.6,246.7c-5.664,3.976-10.17,9.564-11.8,16.393a28.009,28.009,0,0,0,2.269,19.5c3.393,6.188,9.551,9.088,16.151,10.741,7.524,1.884,15.467,2.341,23.176,2.972,7.783.636,15.58,1.087,23.382,1.409q21.114.87,42.259.571,2.182-.029,4.363-.072a2.038,2.038,0,0,0,2-2c.233-8.193.7-16.378.936-24.571.062-2.167.121-4.335.119-6.5a2.053,2.053,0,0,0-2-2c-18.579-1.937-37.189-3.551-55.77-5.466q-7.935-.818-15.861-1.722a2.011,2.011,0,0,0-2,2,2.048,2.048,0,0,0,2,2c18.742,2.155,37.534,3.833,56.31,5.654q7.664.743,15.321,1.534l-2-2c.009,9.023-.519,18.059-.9,27.072-.055,1.334-.121,2.667-.159,4l2-2q-19.525.382-39.056-.228c-14.8-.454-29.606-1.293-44.319-2.984a62.294,62.294,0,0,1-11.051-2.164,21.031,21.031,0,0,1-8.292-4.187c-4.414-4.063-5.863-10.29-5.609-16.1a23.129,23.129,0,0,1,8.02-16.423c5.556-4.93,12.6-8.1,19.489-10.652,15.047-5.579,29.9-11.708,45.208-16.558q2.971-.941,5.962-1.816c2.466-.722,1.417-4.583-1.063-3.857Z"/><path class="a" d="M237.7,232.909c-.676-.538-1.43-1.129-2.186-1.764-.592-.5-1.281-1.094-2.022-1.748l1.293.338c1.766.638,3.23.073,3.653-.782a2.917,2.917,0,0,0-.29-3.405c-2.01-1.845-5.179-5.378-7.352-7.223l-1.947-1.84.55.208a7.1,7.1,0,0,0,5.532.116,2.928,2.928,0,0,0,1.45-3.406c-.318-1.041-1.8-2.284-4.14-3.785-.744-.476-3.656-2.893-4.385-3.393-3.052-2.089-4.768-3.587-7.393-4.687-2.34-.979-5.346-1.06-8.318-1.105-3.095-.334-5.686-.857-7.274.335-2.279.9-5.414,4.159-6.94,6.187l-.441.586c-.914,1.383-1.737,3.076-1.145,4.848l.566,1.695c3.09,7.194,3.952,9.764,8.8,16.132,1.726,2.27,6.717,6,8.95,7.719,2.072,1.6,4.02,2.679,6.179,4.165,1.74,1.2,3.54,1.269,4.569-.265.6-.9.451-1.791-.04-3.359,1.06.932,2.166,1.872,3.345,2.843a5.356,5.356,0,0,0,1.507.833,3.09,3.09,0,0,0,2.651-.415,2.537,2.537,0,0,0,1.168-2.783,5.9,5.9,0,0,0-1.708-2.422l2.226,1.365a3.552,3.552,0,0,0,4.439-.559,2.787,2.787,0,0,0-.516-3.8C238.233,233.335,237.972,233.126,237.7,232.909Z"/><path class="c" d="M229.38,219.74c2.127,1.818,4,3.918,5.979,5.894.42.42.847.831,1.277,1.239.067.06.132.122.194.187-.146-.207-.179-.247-.1-.122a1.612,1.612,0,0,1,.11.194c-.087-.219-.106-.257-.06-.115a1.9,1.9,0,0,1,.062.236q-.033-.339-.016-.109c0,.091-.061.693.015.3a4.35,4.35,0,0,0-.164.584l.031-.081q-.156.264.126-.122a1.371,1.371,0,0,1-.123.13q-.162.15.161-.116a1.636,1.636,0,0,1-.17.1q-.195.1.162-.054c-.1.086-.31.09-.434.126.448-.13.023,0-.125,0-.12,0-.239,0-.358-.013.19.03.21.031.061,0-.231-.069-.465-.116-.694-.194a2.015,2.015,0,0,0-2.461,1.4,2.048,2.048,0,0,0,1.4,2.46c1.984.67,4.709.39,5.859-1.6a5.5,5.5,0,0,0,.62-3.705,4.48,4.48,0,0,0-1.465-2.5c-2.4-2.265-4.546-4.8-7.057-6.948a2,2,0,0,0-2.829,2.829Z"/><path class="c" d="M224.847,224.151c2.871,2.764,5.807,5.474,8.84,8.059.852.726,1.728,1.42,2.6,2.118.2.156.393.31.586.47.06.05.576.575.393.324.045.062.279.546.155.231.014.035.147.62.1.238a2.616,2.616,0,0,1,.008.386c.035-.185.035-.206,0-.064s-.026.123.046-.041c-.121.2-.122.214,0,.051a1.205,1.205,0,0,1-.625.434,1.634,1.634,0,0,1-1.391-.187c-2.23-1.295-4.246,2.161-2.018,3.454a5.537,5.537,0,0,0,7.3-1.42,4.526,4.526,0,0,0,.444-3.915,6.723,6.723,0,0,0-2.579-3.12c-3.856-3.062-7.483-6.433-11.029-9.846-1.855-1.786-4.687,1.039-2.828,2.828Z"/><path class="c" d="M220.572,228.361c3.357,3.269,6.965,6.273,10.309,9.554.276.271.729.745.878.94,0,0,.209.332.294.465.021.034.117.3.047.086-.08-.239-.011.137,0,.054-.029.177-.008.33-.1.412a1.345,1.345,0,0,1-.968.416c-.956-.057-1.959-1.25-2.644-1.832q-1.47-1.249-2.9-2.544-3.195-2.9-6.153-6.037c-1.774-1.872-4.6.96-2.828,2.829,2.041,2.154,4.156,4.236,6.36,6.224q1.716,1.547,3.491,3.028c1.345,1.126,2.706,2.233,4.54,2.323a4.82,4.82,0,0,0,4.764-6.652c-.965-2.126-3.243-3.743-4.914-5.3-2.439-2.276-4.957-4.463-7.348-6.79-1.845-1.8-4.676,1.028-2.828,2.828Z"/><path class="c" d="M222.9,217.279c1.21.3,2.442.478,3.663.722,1.252.249,2.416.744,3.652,1.029,2.306.53,5.156.428,6.913-1.379a4.947,4.947,0,0,0,1.015-5.2c-.8-1.912-2.829-3.2-4.485-4.294-2.81-1.858-5.5-4.2-8.347-6.164a18.316,18.316,0,0,0-5.874-2.886c-2.635-.656-5.311-.439-7.976-.747-2.24-.259-4.679-.7-6.816.258a17.9,17.9,0,0,0-4.666,3.159c-2.974,2.71-6.866,6.827-5.541,11.2a56.44,56.44,0,0,0,2.372,5.913c.724,1.682,1.467,3.358,2.324,4.976a37.318,37.318,0,0,0,6.743,9.469,74.1,74.1,0,0,0,10.829,8.451c2.18,1.41,4.581,3.6,7.373,3.126,3-.512,4.08-3.408,3.468-6.1-.571-2.509-4.428-1.447-3.857,1.064.463,2.036-1.609.651-2.409.115-1.686-1.129-3.433-2.166-5.067-3.371a82.878,82.878,0,0,1-7.159-5.784c-4.614-4.27-7.253-10.348-9.671-16.023-.519-1.215-1.46-2.893-1.153-4.254a9.59,9.59,0,0,1,2.525-3.884c1.885-2.094,4.355-4.733,7.378-4.638,2.045.064,4.073.37,6.122.448a15.217,15.217,0,0,1,5.866,1.078,41.79,41.79,0,0,1,7.807,5.224c1.152.915,2.283,1.875,3.508,2.691a16.724,16.724,0,0,1,2.457,1.84,5.614,5.614,0,0,1,.545.624c.062.081.067.081.051.2-.2,1.51-2.344,1.277-3.607.931-1.1-.3-2.134-.705-3.256-.929-1.222-.243-2.453-.42-3.664-.721-2.5-.622-3.563,3.234-1.063,3.857Z"/><path class="c" d="M217.653,231.605q5.919-5.3,12.1-10.293a2.007,2.007,0,0,0,0-2.829,2.059,2.059,0,0,0-2.829,0q-6.18,4.992-12.1,10.293a2.014,2.014,0,0,0,0,2.829,2.047,2.047,0,0,0,2.828,0Z"/><path class="a" d="M13.491,234.915c.676-.537,1.43-1.128,2.186-1.763.592-.5,1.281-1.095,2.022-1.749l-1.293.338c-1.766.639-3.23.074-3.653-.781a2.916,2.916,0,0,1,.29-3.405c2.01-1.845,5.179-5.378,7.352-7.223l1.947-1.84-.55.208a7.1,7.1,0,0,1-5.532.116,2.929,2.929,0,0,1-1.45-3.406c.318-1.041,1.8-2.285,4.14-3.785.744-.476,3.656-2.894,4.385-3.393,3.052-2.089,4.768-3.588,7.393-4.687,2.34-.98,5.346-1.06,8.318-1.1,3.095-.335,5.686-.857,7.274.334,2.279.9,5.414,4.16,6.94,6.187l.441.587c.915,1.382,1.737,3.076,1.145,4.848l-.566,1.7c-3.09,7.193-3.952,9.763-8.8,16.131-1.726,2.271-6.717,6-8.95,7.72-2.072,1.595-4.02,2.679-6.179,4.164-1.74,1.2-3.54,1.269-4.569-.265-.6-.9-.451-1.79.04-3.358-1.06.932-2.166,1.871-3.345,2.842a5.36,5.36,0,0,1-1.507.834,3.091,3.091,0,0,1-2.651-.416,2.536,2.536,0,0,1-1.168-2.783,5.9,5.9,0,0,1,1.708-2.422L16.638,239.9a3.553,3.553,0,0,1-4.439-.56,2.786,2.786,0,0,1,.516-3.8C12.957,235.341,13.218,235.133,13.491,234.915Z"/><path class="c" d="M18.981,218.918c-2.511,2.147-4.658,4.683-7.057,6.948a4.486,4.486,0,0,0-1.465,2.495,5.5,5.5,0,0,0,.62,3.706c1.151,1.994,3.875,2.273,5.859,1.6a2,2,0,1,0-1.064-3.857c-.2.067-.4.117-.6.174q-.367.068-.035.015c-.09.008-.18.012-.269.012s-.584-.081-.321-.007c.3.083-.3-.089-.326-.115l.22.087a2.3,2.3,0,0,1-.229-.136l.205.157a1.685,1.685,0,0,1-.167-.171c.177.243.227.3.153.17-.039-.075-.037-.064,0,.033-.031-.191-.125-.392-.164-.584.08.388.016-.115.01-.209-.027-.471-.07.26.027-.139.108-.442-.164.251.035-.093s-.281.22.086-.082c.471-.388.895-.853,1.326-1.284,1.975-1.977,3.852-4.077,5.979-5.895a2.01,2.01,0,0,0,0-2.828,2.052,2.052,0,0,0-2.829,0Z"/><path class="c" d="M23.515,223.33c-3.546,3.413-7.173,6.784-11.029,9.846a6.718,6.718,0,0,0-2.579,3.12,4.53,4.53,0,0,0,.444,3.915,5.539,5.539,0,0,0,7.3,1.42c2.225-1.292.213-4.75-2.019-3.454-.085.052-.172.1-.261.143q.357-.138.028-.017c-.17.045-.335.1-.508.134.42-.09-.145-.007-.207,0-.24-.018-.256-.011-.051.02a2.494,2.494,0,0,1-.294-.066,1.224,1.224,0,0,1-.723-.46c.252.322-.162-.238.064.08q-.078-.35-.019-.026a2.633,2.633,0,0,1,.008-.387c-.044.351.068-.16.1-.238-.12.3.136-.2.155-.23-.186.253.234-.193.3-.249.222-.187.451-.365.678-.546.875-.7,1.752-1.391,2.6-2.117,3.033-2.585,5.969-5.3,8.84-8.059,1.858-1.789-.972-4.615-2.828-2.828Z"/><path class="c" d="M27.79,227.539c-2.118,2.062-4.333,4.014-6.508,6.014-.966.888-1.906,1.8-2.88,2.682a15.32,15.32,0,0,0-2.457,2.657,4.726,4.726,0,0,0,2.876,7.237,5.744,5.744,0,0,0,5.075-1.39c1.225-.98,2.412-2.016,3.587-3.055q3.757-3.321,7.2-6.974c1.77-1.868-1.054-4.7-2.828-2.828-1.722,1.817-3.5,3.586-5.333,5.286q-1.4,1.291-2.837,2.535a16.977,16.977,0,0,1-2.955,2.385,1.164,1.164,0,0,1-.977.144,1.073,1.073,0,0,1-.634-.46c.086.149-.051-.32-.036-.139.013.164,0-.212.008-.193.021.058.077-.218-.038.051a2.583,2.583,0,0,1,.637-.927c1.4-1.563,3.08-2.955,4.625-4.371,2.11-1.934,4.252-3.829,6.3-5.825,1.848-1.8-.982-4.627-2.828-2.829Z"/><path class="c" d="M27.231,215.429c-2.054.511-4.146.721-6.156,1.409-1.019.348-3.438,1.087-4.24-.08a2.288,2.288,0,0,1-.132-.492c0-.041.039-.405-.012-.136,0-.009.1-.295.027-.138a6.151,6.151,0,0,1,1.212-1.226c1.145-.929,2.429-1.682,3.593-2.592,2.437-1.906,4.719-3.7,7.416-5.417a13.109,13.109,0,0,1,4.715-1.97c2.155-.4,4.36-.223,6.527-.478,1.436-.169,3.373-.649,4.754-.045a13.433,13.433,0,0,1,3.723,2.595,27.8,27.8,0,0,1,2.931,3.186c1.083,1.392,1.709,2.681,1.136,4.4a65.019,65.019,0,0,1-3.844,8.883,41.2,41.2,0,0,1-5.193,7.951A49.241,49.241,0,0,1,36,237.85c-1.72,1.318-3.533,2.473-5.346,3.655-.706.46-3.7,2.786-3.152.375.571-2.506-3.285-3.576-3.857-1.063-.546,2.4.131,4.905,2.625,5.869s4.591-.551,6.587-1.847a105.011,105.011,0,0,0,10.3-7.59c6.181-5.175,9.485-12.3,12.589-19.55.879-2.055,1.673-4.154,1.017-6.405a14.273,14.273,0,0,0-3.271-5.185c-2.6-2.958-6.068-6.14-10.248-6.074a32.967,32.967,0,0,0-3.289.3c-1.462.17-2.936.121-4.405.228a17.794,17.794,0,0,0-7.134,1.865,62.344,62.344,0,0,0-9.39,6.652c-2.856,2.254-7.921,4.638-5.864,9.221,1.167,2.6,4.206,3.28,6.8,2.911,1.393-.2,2.658-.756,4.022-1.071,1.427-.33,2.883-.5,4.306-.856,2.5-.622,1.439-4.481-1.063-3.857Z"/><path class="c" d="M36.365,230.783q-5.919-5.3-12.1-10.293a2.05,2.05,0,0,0-2.829,0,2.022,2.022,0,0,0,0,2.828q6.18,4.992,12.1,10.293a2,2,0,1,0,2.828-2.828Z"/><path class="c" d="M121.623,75.978a5.958,5.958,0,0,0,4.329,1.614,7.185,7.185,0,0,0,4.014-.922,4.453,4.453,0,0,0,1.907-2.6,5.86,5.86,0,0,0,.025-2.7,5.227,5.227,0,0,0-4.269-3.946,7.02,7.02,0,0,0-4.082.448,5.36,5.36,0,0,0-1.924,8.1,2.014,2.014,0,0,0,2.828,0,2.044,2.044,0,0,0,0-2.828c-.223-.246.311.466.18.241-.022-.037-.049-.072-.072-.109a2.267,2.267,0,0,1-.142-.283l.2.477a2.876,2.876,0,0,1-.177-.665l.071.532a3.788,3.788,0,0,1,0-.975l-.072.532a3.979,3.979,0,0,1,.255-.948l-.2.477a3.692,3.692,0,0,1,.274-.53c.109-.174.368-.425-.1.106.069-.077.132-.158.2-.233s.151-.146.228-.217c.031-.029.068-.052.1-.081-.44.423-.367.272-.222.177a3.922,3.922,0,0,1,.625-.337l-.477.2a4.216,4.216,0,0,1,.944-.251l-.532.071a5.7,5.7,0,0,1,1.482.007l-.532-.071a4.522,4.522,0,0,1,1.1.3l-.478-.2a3.537,3.537,0,0,1,.554.3.916.916,0,0,0,.129.091c.011,0-.426-.356-.26-.2.072.07.149.134.219.206s.114.134.174.2c.115.124-.325-.475-.192-.244.019.033.044.063.064.095a3.208,3.208,0,0,1,.26.5l-.2-.478a3.7,3.7,0,0,1,.237.889l-.072-.531a3.848,3.848,0,0,1,0,.971l.071-.532a3.219,3.219,0,0,1-.2.755l.2-.477a2.46,2.46,0,0,1-.126.258c-.02.034-.042.066-.061.1-.148.261.332-.39.162-.207-.071.077-.139.154-.216.225-.152.14-.337.137.132-.094-.184.091-.348.211-.538.3l.477-.2a4.878,4.878,0,0,1-1.17.3l.531-.072a8.542,8.542,0,0,1-2.167.022l.532.071a4.648,4.648,0,0,1-1.058-.278l.477.2a4.483,4.483,0,0,1-.509-.267c-.287-.173.358.332.1.084-.069-.067-.141-.13-.208-.2a2,2,0,0,0-2.828,2.828Z"/><path class="c" d="M124.754,59.248a27.021,27.021,0,0,1,.632,2.893l-.072-.532a1.718,1.718,0,0,1,.011.4l.072-.531a1,1,0,0,1-.044.179l.2-.478a.651.651,0,0,1-.063.116l.313-.4a.6.6,0,0,1-.095.093l.405-.313a1.929,1.929,0,0,1-.229.122l.478-.2a1.676,1.676,0,0,1-.386.113l.531-.072a1.512,1.512,0,0,1-.362,0l.532.071c-.137-.019-.271-.052-.408-.071a1.512,1.512,0,0,0-.8-.035,1.489,1.489,0,0,0-.744.237,2,2,0,0,0-.718,2.736,1.914,1.914,0,0,0,1.2.919c.357.049.7.138,1.066.154a3.493,3.493,0,0,0,1.631-.4,2.462,2.462,0,0,0,1.333-1.611,3.836,3.836,0,0,0-.014-1.679c-.157-.932-.373-1.855-.612-2.769a2,2,0,0,0-2.46-1.4,2.03,2.03,0,0,0-1.2.919,2.1,2.1,0,0,0-.2,1.541Z"/><path class="c" d="M136.236,54.611c1.344.046,2.693,0,4.036-.066a2.11,2.11,0,0,0,1.415-.586,2,2,0,0,0,0-2.828,2,2,0,0,0-1.415-.586c-1.343.067-2.692.112-4.036.066a2,2,0,0,0,0,4Z"/><path class="c" d="M110.983,54.624c1.374.025,2.75-.02,4.123-.066a2.092,2.092,0,0,0,1.414-.585,2,2,0,0,0-1.414-3.415c-1.373.046-2.749.091-4.123.066a2,2,0,0,0,0,4Z"/></svg>